<?xml version="1.0" encoding="UTF-8"?>
<!DOCTYPE svg PUBLIC "-//W3C//DTD SVG 1.1//EN" "http://www.w3.org/Graphics/SVG/1.1/DTD/svg11.dtd">
<svg xmlns="http://www.w3.org/2000/svg" version="1.1" width="505px" height="219px" style="shape-rendering:geometricPrecision; text-rendering:geometricPrecision; image-rendering:optimizeQuality; fill-rule:evenodd; clip-rule:evenodd" xmlns:xlink="http://www.w3.org/1999/xlink">
<g><path style="opacity:0.896" fill="#329757" d="M 204.5,1.5 C 209.034,1.09329 211.701,3.09329 212.5,7.5C 207.674,38.9877 194.007,65.8211 171.5,88C 155.232,101.645 136.566,107.645 115.5,106C 110.761,104.881 106.928,102.381 104,98.5C 97.5591,109.592 94.2258,121.592 94,134.5C 93.6667,134.167 93.3333,133.833 93,133.5C 91.1005,153.495 89.2672,173.495 87.5,193.5C 81.276,192.577 78.6093,188.91 79.5,182.5C 81.4136,166.858 83.0802,151.192 84.5,135.5C 84.4863,126.293 82.3196,117.626 78,109.5C 76.1994,112.163 73.6994,113.997 70.5,115C 56.121,116.657 43.121,112.99 31.5,104C 13.4862,87.806 3.65283,67.6393 2,43.5C 3.86365,40.7928 6.36365,39.9595 9.5,41C 12.5568,43.7226 15.8901,46.056 19.5,48C 32.6141,49.6126 45.6141,51.9459 58.5,55C 77.8592,60.676 87.6926,73.5094 88,93.5C 87.4563,98.036 85.2896,101.536 81.5,104C 84.3239,109.461 85.8239,115.295 86,121.5C 87.9552,122.453 89.6218,123.787 91,125.5C 90.5951,113.13 93.0951,101.463 98.5,90.5C 95.0258,87.5209 92.5258,83.8543 91,79.5C 88.66,57.6806 96.8267,41.1806 115.5,30C 123.982,25.2835 132.982,21.9502 142.5,20C 156.815,17.8022 171.148,15.8022 185.5,14C 193.203,11.8218 199.536,7.65511 204.5,1.5 Z M 156.5,50.5 C 136.37,59.2081 118.036,70.3747 101.5,84C 97.6981,80.9363 96.0314,76.9363 96.5,72C 98.4873,51.6671 109.154,38.0004 128.5,31C 132.773,29.4646 137.106,28.1312 141.5,27C 157.129,24.3748 172.795,22.0415 188.5,20C 195.05,18.11 200.55,14.61 205,9.5C 200.766,38.8015 187.933,63.6348 166.5,84C 154.057,93.8001 139.89,99.3001 124,100.5C 116.569,101.203 111.069,98.3692 107.5,92C 113.5,84.6667 120.167,78 127.5,72C 137.234,64.8124 146.901,57.6457 156.5,50.5 Z M 8.5,48.5 C 11.7786,51.2689 15.4452,53.4356 19.5,55C 30.8902,56.3025 42.2235,57.9692 53.5,60C 67.4514,62.9588 76.6181,71.1255 81,84.5C 81.6667,88.1667 81.6667,91.8333 81,95.5C 80.3333,96.8333 79.3333,97.8333 78,98.5C 68.8345,89.3597 58.3345,83.0264 46.5,79.5C 56.9206,86.4204 66.254,94.5871 74.5,104C 70.3771,109.038 65.0437,110.705 58.5,109C 40.7981,105.305 27.6314,95.472 19,79.5C 13.5965,69.7893 10.0965,59.456 8.5,48.5 Z"/></g>
<g><path style="opacity:0.946" fill="#329757" d="M 408.5,119.5 C 413.274,120.006 416.107,122.673 417,127.5C 417.667,133.833 417.667,140.167 417,146.5C 414.171,162.13 412.671,177.797 412.5,193.5C 407.993,191.658 405.326,188.324 404.5,183.5C 399.839,190.891 393.172,193.725 384.5,192C 380.479,190.132 378.313,186.965 378,182.5C 375.916,169.401 380.083,158.901 390.5,151C 395.379,148.753 400.379,148.253 405.5,149.5C 405.833,149.833 406.167,150.167 406.5,150.5C 390.401,156.855 385.068,168.021 390.5,184C 394.421,184.959 397.588,183.792 400,180.5C 403.724,173.273 406.058,165.607 407,157.5C 409.054,144.867 409.554,132.2 408.5,119.5 Z"/></g>
<g><path style="opacity:0.94" fill="#329757" d="M 454.5,119.5 C 459.149,120.651 461.982,123.651 463,128.5C 463.167,131.167 463.333,133.833 463.5,136.5C 461.74,151.486 460.074,166.486 458.5,181.5C 458.947,185.188 459.114,188.854 459,192.5C 457.927,193.28 456.76,193.113 455.5,192C 452.57,189.88 450.737,187.047 450,183.5C 443.539,193.21 435.539,194.876 426,188.5C 420.735,174.394 423.569,162.228 434.5,152C 440.347,148.521 446.347,148.021 452.5,150.5C 438.08,156.019 431.913,166.353 434,181.5C 438.721,185.758 442.721,185.091 446,179.5C 449.724,172.273 452.058,164.607 453,156.5C 454.284,144.202 454.784,131.869 454.5,119.5 Z"/></g>
<g><path style="opacity:0.941" fill="#329758" d="M 33.5,127.5 C 37.8018,127.98 41.1351,129.98 43.5,133.5C 51.2774,129.358 58.944,129.525 66.5,134C 72.8959,145.308 70.2292,153.975 58.5,160C 69.6838,165.55 72.5171,174.05 67,185.5C 59.6676,192.878 50.8342,195.378 40.5,193C 36.2413,192.201 32.5746,190.368 29.5,187.5C 33.5462,167.663 34.8796,147.663 33.5,127.5 Z M 47.5,137.5 C 57.2104,136.046 61.3771,140.046 60,149.5C 56.464,155.188 51.2973,158.188 44.5,158.5C 44.2865,160.144 44.6198,161.644 45.5,163C 57.4934,163.965 61.9934,170.132 59,181.5C 54.3312,187.223 48.4979,188.89 41.5,186.5C 41.1667,184.333 40.8333,182.167 40.5,180C 41.6997,166.503 42.8664,153.003 44,139.5C 45.3024,138.915 46.469,138.249 47.5,137.5 Z"/></g>
<g><path style="opacity:0.95" fill="#329758" d="M 289.5,127.5 C 293.34,128.252 296.34,130.252 298.5,133.5C 306.303,129.564 313.97,129.73 321.5,134C 326.66,140.636 326.826,147.469 322,154.5C 319.592,156.956 316.759,158.789 313.5,160C 324.956,165.609 327.79,174.109 322,185.5C 314.719,193.072 305.886,195.572 295.5,193C 292.382,192.127 289.382,190.961 286.5,189.5C 286.167,188.167 285.833,186.833 285.5,185.5C 288.695,166.235 290.028,146.901 289.5,127.5 Z M 302.5,137.5 C 314.241,136.04 318.074,140.706 314,151.5C 310.148,155.843 305.314,158.176 299.5,158.5C 299.286,160.144 299.62,161.644 300.5,163C 312.516,163.984 317.016,170.151 314,181.5C 309.415,187.225 303.581,188.891 296.5,186.5C 296.167,184.833 295.833,183.167 295.5,181.5C 296.9,167.164 298.234,152.831 299.5,138.5C 300.791,138.737 301.791,138.404 302.5,137.5 Z"/></g>
<g><path style="opacity:0.949" fill="#329758" d="M 114.5,146.5 C 115.833,146.5 117.167,146.5 118.5,146.5C 118.281,147.675 118.614,148.675 119.5,149.5C 132.668,145.811 139.001,150.977 138.5,165C 139.051,175.892 135.051,184.558 126.5,191C 110.314,196.172 101.647,190.172 100.5,173C 100.38,161.451 105.047,152.618 114.5,146.5 Z M 120.5,154.5 C 123.652,153.959 126.152,154.959 128,157.5C 130.731,166.791 129.398,175.457 124,183.5C 118.243,188.266 113.91,187.266 111,180.5C 108.957,169.786 112.123,161.119 120.5,154.5 Z"/></g>
<g><path style="opacity:0.946" fill="#329758" d="M 160.5,146.5 C 161.833,146.5 163.167,146.5 164.5,146.5C 164.351,147.552 164.517,148.552 165,149.5C 178.378,145.518 184.878,150.685 184.5,165C 184.617,175.091 180.951,183.424 173.5,190C 156.647,196.681 147.647,190.847 146.5,172.5C 146.51,161.136 151.177,152.469 160.5,146.5 Z M 166.5,154.5 C 173.602,154.824 176.602,158.657 175.5,166C 175.001,173.846 172.001,180.512 166.5,186C 163.044,187.123 160.21,186.29 158,183.5C 153.855,171.789 156.689,162.122 166.5,154.5 Z"/></g>
<g><path style="opacity:0.956" fill="#329758" d="M 195.5,146.5 C 201.978,147.66 205.312,151.66 205.5,158.5C 208.027,153.806 211.694,150.306 216.5,148C 223.89,146.715 227.723,149.882 228,157.5C 231.373,150.429 236.873,147.263 244.5,148C 245.416,148.374 246.25,148.874 247,149.5C 248.755,152.6 249.589,155.933 249.5,159.5C 247.893,168.793 247.06,178.126 247,187.5C 247.972,189.305 249.139,190.972 250.5,192.5C 245.736,193.934 241.569,192.934 238,189.5C 237.327,180.768 237.827,172.101 239.5,163.5C 239.333,161.5 239.167,159.5 239,157.5C 238.439,156.978 237.772,156.645 237,156.5C 230.53,161.093 226.864,167.426 226,175.5C 225.501,181.157 225.334,186.824 225.5,192.5C 215.873,192.573 212.707,187.906 216,178.5C 217.547,171.893 218.214,165.226 218,158.5C 215.581,156.158 213.247,156.491 211,159.5C 204.698,169.347 202.365,180.013 204,191.5C 197.843,193.27 194.343,190.937 193.5,184.5C 196.31,171.917 196.977,159.251 195.5,146.5 Z"/></g>
<g><path style="opacity:0.948" fill="#329758" d="M 497.5,145.5 C 502.796,147.766 504.63,151.766 503,157.5C 497.937,167.959 492.604,178.292 487,188.5C 482.956,197.875 481.456,207.542 482.5,217.5C 475.051,216.884 471.884,212.884 473,205.5C 474.816,200.217 476.316,194.884 477.5,189.5C 476.153,176.094 473.153,163.094 468.5,150.5C 468.608,149.558 468.941,148.725 469.5,148C 473.136,145.569 476.302,146.069 479,149.5C 480.399,152.363 481.399,155.363 482,158.5C 482.479,165.339 483.479,172.006 485,178.5C 491.436,168.306 495.603,157.306 497.5,145.5 Z"/></g>
<g><path style="opacity:0.953" fill="#329658" d="M 337.5,147.5 C 341.577,147.625 344.744,149.292 347,152.5C 347.091,161.06 346.258,169.56 344.5,178C 345.616,184.63 348.116,185.13 352,179.5C 357.596,169.612 360.096,158.945 359.5,147.5C 361.857,147.337 364.19,147.503 366.5,148C 367.701,148.903 368.535,150.069 369,151.5C 367.169,165.469 366.335,179.469 366.5,193.5C 360.443,190.863 357.609,186.196 358,179.5C 355.648,184.058 352.481,187.891 348.5,191C 338.05,192.714 333.716,188.214 335.5,177.5C 336.844,167.417 337.511,157.417 337.5,147.5 Z"/></g>
</svg>
